<svg version="1.2" viewBox="100 200 700 700" xmlns="http://www.w3.org/2000/svg">
<polygon points="267 369 266 370 266 371 265 372 265 382 266 383 266 386 267 387 267 389 268 390 268 391 269 392 269 393 270 394 270 396 271 397 271 398 272 399 272 400 273 401 273 402 274 403 274 407 275 408 275 432 274 433 274 439 273 440 273 443 272 444 272 446 271 447 271 449 270 450 270 452 269 453 269 457 268 458 268 461 269 462 269 465 271 467 271 468 274 471 274 472 275 473 276 473 278 475 279 475 280 476 281 476 282 477 284 477 285 478 288 478 289 479 292 479 293 480 295 480 296 481 297 481 298 482 299 482 300 483 301 483 303 485 303 486 304 487 304 488 305 489 305 491 306 492 306 494 307 495 307 496 308 497 308 498 309 499 309 502 310 503 310 505 311 506 311 510 312 511 312 516 313 517 313 548 314 549 314 554 313 555 313 618 312 619 312 629 311 630 311 634 310 635 310 639 309 640 309 646 308 647 308 651 307 652 307 657 306 658 306 661 305 662 305 665 304 666 304 668 303 669 303 671 302 672 302 674 301 675 301 677 300 678 300 680 299 681 299 684 298 685 298 687 297 688 297 690 296 691 296 693 295 694 295 696 294 697 294 699 293 700 293 701 292 702 292 704 291 705 291 707 290 708 290 709 289 710 289 712 288 713 288 715 287 716 287 718 286 719 286 720 285 721 285 723 284 724 284 725 283 726 283 728 282 729 282 732 281 733 281 737 280 738 280 743 281 744 281 745 282 746 282 747 291 756 292 756 294 758 296 758 297 759 299 759 300 760 304 760 305 761 310 761 311 762 319 762 320 763 336 763 337 762 347 762 348 763 354 763 355 764 358 764 359 765 361 765 362 766 366 766 367 767 373 767 374 768 384 768 385 769 399 769 400 770 418 770 419 771 425 771 426 772 435 772 436 773 518 773 519 772 533 772 534 773 546 773 547 772 551 772 552 773 553 772 554 772 555 773 556 773 557 772 558 772 559 771 559 770 558 769 558 768 557 768 554 765 553 765 540 752 540 751 535 746 535 745 533 743 533 742 532 741 532 740 528 736 528 735 527 734 527 733 524 730 524 725 525 724 525 722 532 715 533 715 534 714 537 714 538 713 542 713 543 712 550 712 551 711 560 711 561 710 569 710 570 709 572 709 573 708 576 708 577 707 579 707 580 706 581 706 582 705 583 705 584 704 587 704 588 703 593 703 594 702 596 702 597 701 598 701 599 700 600 700 601 699 603 699 604 698 606 698 607 697 609 697 610 696 611 696 612 695 613 695 614 694 615 694 618 691 619 691 620 690 621 690 622 689 623 689 624 688 625 688 626 687 627 687 629 685 630 685 631 684 632 684 633 683 634 683 635 682 636 682 638 680 639 680 640 679 641 679 642 678 644 678 645 677 646 677 647 676 649 676 650 675 652 675 653 674 655 674 656 673 658 673 659 672 661 672 662 671 664 671 665 670 667 670 668 669 670 669 671 668 672 668 673 667 674 667 675 666 677 666 678 665 678 663 677 663 676 662 671 662 670 661 667 661 666 660 665 660 664 659 663 659 662 658 662 656 661 655 662 654 662 653 663 652 663 651 664 650 664 649 667 646 668 646 671 643 672 643 675 640 676 640 678 638 679 638 681 636 682 636 684 634 685 634 687 632 688 632 691 629 692 629 699 622 699 621 692 621 691 622 686 622 685 623 679 623 678 624 668 624 667 623 666 623 664 621 664 620 663 619 663 617 662 616 662 614 661 613 661 611 660 610 660 604 661 603 661 602 662 601 662 600 664 598 664 597 668 593 668 592 689 571 689 570 690 569 689 568 684 568 683 569 681 569 680 570 678 570 677 571 675 571 674 572 673 572 672 573 670 573 669 574 668 574 667 575 666 575 665 576 664 576 663 577 661 577 660 578 658 578 657 579 651 579 650 578 650 576 649 575 649 574 650 573 650 571 652 569 652 568 663 557 663 556 672 547 672 546 676 542 676 541 677 540 677 539 678 538 678 537 680 535 680 534 677 534 675 536 674 536 673 537 672 537 670 539 669 539 664 544 663 544 662 545 661 545 660 546 659 546 658 547 657 547 656 548 655 548 653 550 652 550 651 551 649 551 648 552 639 552 638 551 636 551 632 547 632 546 631 545 631 539 635 535 635 534 641 528 641 527 646 522 646 521 650 517 650 516 653 513 653 512 655 510 655 509 658 506 658 505 661 502 661 501 663 499 663 498 668 493 668 492 670 490 670 488 669 488 668 489 667 489 666 490 665 490 663 492 662 492 660 494 659 494 658 495 657 495 655 497 654 497 652 499 651 499 649 501 648 501 646 503 645 503 643 505 642 505 639 508 638 508 637 509 636 509 633 512 632 512 631 513 630 513 628 515 627 515 626 516 625 516 624 517 623 517 621 519 620 519 619 520 618 520 617 521 616 521 615 522 609 522 608 521 607 521 604 518 604 516 603 515 603 509 604 508 604 506 605 505 605 503 606 502 606 500 607 499 607 498 609 496 609 495 611 493 611 492 614 489 614 488 616 486 616 485 619 482 619 481 621 479 621 478 623 476 623 475 625 473 625 472 627 470 627 469 629 467 629 466 631 464 631 463 633 461 633 460 636 457 636 456 638 454 638 452 637 451 636 451 634 453 633 453 630 456 629 456 626 459 625 459 621 463 620 463 615 468 614 468 608 474 607 474 600 481 599 481 591 489 590 489 582 497 581 497 579 499 576 499 574 497 574 496 575 495 575 494 576 493 576 492 577 491 577 490 578 489 578 488 579 487 579 486 581 484 581 483 582 482 582 481 583 480 583 479 585 477 585 476 587 474 587 473 588 472 588 471 590 469 590 468 592 466 592 465 594 463 594 462 596 460 596 459 597 458 597 457 599 455 599 454 602 451 602 450 605 447 605 446 607 444 606 443 604 445 603 445 602 446 601 446 599 448 598 448 597 449 596 449 594 451 593 451 591 453 590 453 587 456 586 456 583 459 582 459 580 461 579 461 577 463 576 463 574 465 573 465 571 467 570 467 566 471 565 471 562 474 561 474 559 476 558 476 555 479 553 479 551 481 550 481 549 482 548 482 547 481 548 480 548 479 550 477 550 476 552 474 552 473 553 472 553 471 554 470 554 469 555 468 555 467 556 466 556 465 558 463 558 462 559 461 559 459 560 458 560 457 562 455 561 454 560 455 559 455 553 461 553 462 547 468 546 468 544 470 543 470 541 472 540 472 537 475 536 475 532 479 531 479 523 487 523 488 516 495 516 496 514 498 514 499 513 500 513 501 511 503 511 504 510 505 510 506 508 508 508 509 507 510 507 511 505 513 505 514 503 516 503 517 502 518 502 519 500 521 500 522 499 523 499 524 497 526 497 527 495 529 495 530 493 532 493 533 491 535 491 536 482 545 481 545 473 553 473 554 469 558 469 559 467 561 467 562 465 564 465 565 464 566 464 567 463 568 463 569 462 570 462 571 461 572 461 574 460 575 460 576 459 577 459 578 458 579 458 580 457 581 457 584 456 585 456 587 455 588 455 590 454 591 454 592 453 593 453 594 452 595 452 597 451 598 451 600 450 601 450 606 449 607 449 611 448 612 448 617 447 618 447 623 446 624 446 627 445 628 445 632 444 633 444 636 443 637 443 641 442 642 442 645 441 646 441 648 440 649 437 649 436 648 433 648 432 647 430 647 429 646 428 646 427 645 426 645 425 644 424 644 423 643 421 643 417 639 417 638 415 636 415 635 413 633 413 632 412 631 412 630 411 629 411 628 409 626 409 625 408 624 408 623 407 622 407 621 406 620 406 619 404 617 404 616 402 614 402 613 400 611 400 610 398 608 398 607 397 606 397 605 395 603 395 602 394 601 394 600 393 599 393 598 391 596 391 595 390 594 390 593 389 592 389 591 388 590 388 589 387 588 387 587 385 585 385 584 384 583 384 582 383 581 383 580 381 578 381 577 380 576 380 575 379 574 379 573 378 572 378 571 377 570 377 569 376 568 376 567 375 566 375 565 374 564 374 563 373 562 373 561 372 560 372 558 371 557 371 556 370 555 370 554 369 553 369 552 368 551 368 550 367 549 367 548 366 547 366 546 365 545 365 544 364 543 364 542 363 541 363 540 362 539 362 538 360 536 360 535 359 534 359 533 357 531 357 530 356 529 356 528 355 527 355 525 354 524 354 523 353 522 353 520 352 519 352 518 351 517 351 516 350 515 350 513 349 512 349 511 348 510 348 509 347 508 347 507 346 506 346 504 345 503 345 502 344 501 344 500 343 499 343 498 342 497 342 495 341 494 341 493 340 492 340 491 339 490 339 489 338 488 338 487 337 486 337 485 336 484 336 483 335 482 335 481 334 480 334 479 333 478 333 477 332 476 332 475 331 474 331 473 330 472 330 471 329 470 329 469 328 468 328 466 327 465 327 464 326 463 326 462 325 461 325 459 324 458 324 457 323 456 323 455 322 454 322 453 321 452 321 451 320 450 320 449 319 448 319 447 317 445 317 444 316 443 316 442 314 440 314 439 311 436 311 435 310 434 310 433 309 432 309 431 308 430 308 429 307 428 307 427 306 426 306 425 305 424 305 422 304 421 304 420 303 419 303 418 302 417 302 415 301 414 301 412 300 411 300 410 299 409 299 408 298 407 298 406 297 405 297 404 296 403 296 402 295 401 295 400 294 399 294 398 293 397 293 396 292 395 292 394 291 393 291 391 290 390 290 389 289 388 289 387 288 386 288 385 287 384 287 383 285 381 285 380 284 379 284 378 283 377 283 376 277 370 276 370 275 369"/>
</svg>
